HIERARCHY
ROOT Spine
{
    OFFSET 0.0 0.0 -0.0
    CHANNELS 6 Xposition Yposition Zposition Zrotation Xrotation Yrotation
    JOINT ShoulderCenter
    {
        OFFSET 0.0 31.67816925048828 0.0
        CHANNELS 3 Zrotation Xrotation Yrotation
        JOINT LeftShoulder
        {
            OFFSET 12.424925804138184 0.0 0.0
            CHANNELS 3 Zrotation Xrotation Yrotation
            JOINT LeftElbow
            {
                OFFSET 28.573474884033203 0.0 0.0
                CHANNELS 3 Zrotation Xrotation Yrotation
                JOINT LeftHand
                {
                    OFFSET 31.071807861328125 0.0 0.0
                    CHANNELS 3 Zrotation Xrotation Yrotation
                    End Site
                    {
                        OFFSET 12.428722381591797 0.0 0.0
                    }
                }
            }
        }
        JOINT RightShoulder
        {
            OFFSET -12.424925804138184 0.0 0.0
            CHANNELS 3 Zrotation Xrotation Yrotation
            JOINT RightElbow
            {
                OFFSET -28.573474884033203 0.0 0.0
                CHANNELS 3 Zrotation Xrotation Yrotation
                JOINT RightHand
                {
                    OFFSET -31.071807861328125 0.0 0.0
                    CHANNELS 3 Zrotation Xrotation Yrotation
                    End Site
                    {
                        OFFSET -12.428722381591797 0.0 0.0
                    }
                }
            }
        }
        End Site
        {
            OFFSET 0.0 12.671268463134766 0.0
        }
    }
    JOINT LeftHip
    {
        OFFSET 15.579123319990602 -15.579123319990602 0.0
        CHANNELS 3 Zrotation Xrotation Yrotation
        JOINT LeftKnee
        {
            OFFSET 0.0 -34.820343017578125 0.0
            CHANNELS 3 Zrotation Xrotation Yrotation
            JOINT LeftFoot
            {
                OFFSET 0.0 -38.45089340209961 0.0
                CHANNELS 3 Zrotation Xrotation Yrotation
                End Site
                {
                    OFFSET 0.0 0.0 15.380359649658203
                }
            }
        }
    }
    JOINT RightHip
    {
        OFFSET -15.579123319990602 -15.579123319990602 0.0
        CHANNELS 3 Zrotation Xrotation Yrotation
        JOINT RightKnee
        {
            OFFSET 0.0 -34.820343017578125 0.0
            CHANNELS 3 Zrotation Xrotation Yrotation
            JOINT RightFoot
            {
                OFFSET 0.0 -38.45089340209961 0.0
                CHANNELS 3 Zrotation Xrotation Yrotation
                End Site
                {
                    OFFSET 0.0 0.0 15.380359649658203
                }
            }
        }
    }
}
MOTION
Frames: 10
Frame Time: 0.03333333333333333
61.599998474121094 -7.599999904632568 6.700000286102295 8.208975535077348 13.678820286272627 -71.67943247857374 -4.94140969540777e-07 -1.9232811809817732e-07 -3.744320836538609 106.4852800880419 2.3959041096528204 -161.99867364060444 2.56479079991427e-06 -6.953174914111356e-08 31.63460721965966 9.54166404439055e-15 5.29668755766019e-31 6.3611093629270335e-15 -105.69174984990123 -25.53276477714364 -168.5808080695845 -4.908271593227349e-06 2.686453191619801e-06 -91.3515752852857 7.156248033292914e-15 7.95138670365879e-16 -3.1805546814635168e-15 -0.7689944025503017 -21.42264032478432 -35.45070231447217 -5.413269414147521 27.976185199421558 -27.435361038078945 1.2921003393445534e-15 1.9878466759146967e-16 -8.15017137125026e-15 10.949514722964413 -46.93784106611073 -13.692885435418168 -19.151705220836952 14.177753040367268 60.43521218703882 0.0 0.0 1.590277340731758e-15
62.19999694824219 -7.199999809265137 7.0 8.33901285311928 12.18500019519005 -75.40947987124956 -1.7090577492855045e-06 -9.24911142234363e-08 -2.433321651133062 104.86265033662899 0.19279268512806666 -162.58542955769596 6.120211715969906e-07 -4.180110785423474e-07 32.061460607099164 -3.180554681463516e-15 6.361109362927033e-15 -3.180554681463516e-15 -105.29877306616513 -25.028019589250658 -169.01158460789995 4.824720804539315e-07 8.480549629131605e-08 -92.13831781100544 -7.156248033292914e-15 -7.156248033292914e-15 -4.469080126775786e-31 -1.0429665666832741 -20.250455757409778 -35.751633358198355 -5.867641285529397 26.43866608632318 -25.98787685475483 1.4908850069360234e-15 -5.963540027744093e-16 6.013236194641961e-15 11.584396170678895 -47.38671090813536 -13.65895078449968 -19.794781095231244 14.387328294379193 59.22691448906989 -9.310583597449553e-33 7.951386703658792e-16 1.341796506242421e-15
63.20000457763672 -6.700000286102295 7.199999809265137 9.220830572651948 10.352278564869287 -79.7435810217747 3.9863832695557407e-07 -3.130399559652448e-07 -0.997921284901583 102.94157227029253 -1.5423532924478447 -163.9874617217213 -8.826086334758804e-07 -5.745406819729557e-06 32.045744209919285 3.1805546814635168e-15 -6.3611093629270335e-15 3.1805546814635168e-15 -105.69262741697503 -25.808279764715817 -170.0158109865539 -3.986794090438818e-06 -2.6571835865956803e-06 -93.52952703271283 -3.1805546814635168e-15 -7.951386703658794e-16 4.770832022195275e-15 -2.103820018978325 -20.478961299958346 -35.20207986245252 -5.747063470566507 26.21712617725901 -26.59733354800044 2.1866313435061676e-15 -1.5362462935791764e-31 -8.050779037454525e-15 10.529042636620554 -47.666404860565414 -13.541397813796035 -19.906919487397627 17.424750851025316 63.00734708943373 -3.1805546814635168e-15 7.951386703658792e-16 -1.4908850069360234e-15
64.4000015258789 -6.199999809265137 7.500000476837158 10.451634168239877 7.971422948301541 -84.37400368219386 -2.8243750893920897e-07 4.7180498809228725e-08 -0.25792757473738603 98.32338262635909 1.7855077299037188 -166.0510939069818 8.6464128162385e-07 2.04959122725011e-06 31.119075562685946 3.1805546814635164e-15 8.827812596100317e-32 3.1805546814635164e-15 -107.2639617559687 -28.019183450652413 -172.27827291395718 -3.0175956315382783e-07 -3.614724472164216e-06 -94.13295609231025 7.951386703658796e-16 -6.361109362927035e-15 1.5902773407317588e-15 -4.258851294281568 -21.736403016157357 -32.8412475419869 -3.9732543014698023 26.985280886536373 -29.658900092818694 5.963540027744094e-16 -1.1896856818963318e-32 -2.2860236773019026e-15 8.556717883115642 -47.33488626742465 -13.210293886338334 -19.30987538094478 24.05209885645739 68.1058407079037 1.5902773407317584e-15 -3.975693351829396e-16 -3.1805546814635168e-15
65.69999694824219 -5.799999713897705 7.599999904632568 11.523720787696769 5.973879106662037 -88.64677196721041 -7.774997892172765e-08 1.2361891167786118e-07 0.9562857680635619 94.54677137744541 5.829089075826259 -168.57910834180927 5.2854161238507934e-08 6.772703886449729e-07 30.3762716425227 0.0 -6.361109362927033e-15 0.0 -108.20110842657691 -29.668460821392237 -174.0037241460886 -4.439866252705201e-06 5.921862034570014e-06 -94.71125883865125 2.3854160110976384e-15 0.0 0.0 -5.742648961385956 -23.092333084836923 -29.548937693740598 -1.6149152460522214 27.206598725583177 -32.39390590251471 -5.963540027744094e-16 1.396587539617433e-32 -2.683593012484842e-15 6.721471879379588 -46.10190283682676 -13.251385013511522 -20.456958659122233 31.890172863832152 76.42559695537865 -3.9756933518293955e-16 1.5902773407317584e-15 -2.53450451179124e-15
67.19999694824219 -5.400000095367432 7.500000476837158 12.76418130161808 4.152059108914504 -91.57736547630932 9.414053316596066e-07 -4.996923293821949e-07 0.8098504369284146 91.46284738864351 10.624846573115258 -170.3259430607608 -3.9659697742135764e-07 -4.0653316620041776e-07 28.735263074165207 0.0 6.361109362927033e-15 0.0 -108.8563538642291 -31.188883422011845 -175.00809315590254 7.390537929813828e-06 -1.7512434608514267e-06 -95.57363828498305 7.951386703658794e-16 -2.2069531490250793e-32 -3.1805546814635176e-15 -6.782252489351206 -25.44007709034242 -25.366421217732622 0.5182365315217019 27.565982150116263 -36.222301737719576 7.951386703658792e-16 1.3103784322336408e-32 1.888454342118963e-15 4.5090346662232985 -43.5055725607311 -10.6459903987981 -19.610076997024922 38.845730410161515 79.21962273691653 3.180554681463516e-15 -1.1927080055488182e-15 3.67751635044219e-15
68.5 -5.099999904632568 7.199999809265137 13.50980641002201 2.5306454421065068 -93.977669081268 2.77258022682048e-07 3.9785038802323677e-07 1.2005570754360315 89.69446677268849 13.744959515978415 -171.53404047888705 4.913684178684092e-07 -2.1421304639543958e-07 25.902714485388245 6.3611093629270335e-15 -1.7655625192200634e-31 -3.1805546814635168e-15 -108.83880020862559 -31.916752323450126 -174.6308314897446 3.806786789376208e-07 9.607933690614626e-07 -96.87313893269128 -6.3611093629270335e-15 -6.7586786981099735e-15 -7.951386703658796e-16 -7.896678532601936 -27.44718245758874 -20.425292718393695 3.7202860057451583 27.97501962567637 -41.13097888692807 -1.5902773407317584e-15 -4.344939012143125e-32 3.1308585145656493e-15 2.9780264698871424 -38.83806818166722 -3.2277466783461692 -12.46880105520474 42.584922608301746 71.37298028147322 -5.379448300748631e-32 7.951386703658791e-16 7.75260203606732e-15
69.5999984741211 -4.900000095367432 6.700000286102295 14.255603141145741 1.0851741741974623 -95.28884343020596 -2.1902830672728818e-07 5.430893586584855e-07 1.172463779333858 88.78220135344127 15.295911962333227 -172.3627067305841 3.430978180107594e-06 1.529189200439574e-06 23.606498763918527 0.0 0.0 -6.3611093629270335e-15 -108.59089017197611 -32.25684655476183 -173.85691031960133 6.9849877724298135e-06 4.2007768274754236e-07 -97.86169139470675 2.3854160110976376e-15 -6.620859447075238e-32 -3.1805546814635168e-15 -8.287520556438144 -29.320638765917042 -16.756158351053525 5.10134184336724 27.966002622510135 -44.189979752221966 7.951386703658794e-16 -1.7241821476758432e-33 -2.484808344893373e-16 2.4734219691573016 -34.01517353200142 6.41915131465367 -3.3126967333849167 39.517680169662974 57.323751189805535 1.9310840053969444e-32 -7.951386703658792e-16 2.782985346280577e-15
70.4000015258789 -4.900000095367432 6.0 14.826477240264719 -0.18100549712920497 -96.56287851009417 2.393994116342276e-07 5.099909144744734e-07 1.6994141885379928 89.20282168094646 11.835723404482975 -174.9601891084361 2.7787252511171904e-06 4.701453198955264e-06 27.647237051623662 -7.062250076880254e-31 -1.2722218725854067e-14 -6.3611093629270335e-15 -108.04410665522681 -32.344336710100976 -172.86422005616808 2.5205202180689846e-06 -5.611359133592235e-06 -98.91949996093132 -1.5902773407317588e-15 6.361109362927035e-15 -7.951386703658792e-16 -8.754467238756153 -31.509368839475947 -11.899216614988681 7.61623250457566 28.766811724303288 -48.814471621305685 -1.7890620083232284e-15 -4.965644585306429e-32 3.1805546814635168e-15 4.02594560161884 -30.098786843875768 13.755415815902337 -2.5678621830845034 33.407073607159404 49.70053537019478 -1.5902773407317584e-15 -1.5902773407317584e-15 2.782985346280577e-15
71.20000457763672 -5.099999904632568 5.0 15.22332797803171 -1.268634336963419 -97.69579946435155 -1.4394256105588875e-06 8.052159811472965e-07 2.506934805920155 91.18730322029344 4.152018282369963 -178.09144692958785 1.0433646001150268e-06 -1.9053120842264105e-07 36.781440899250164 -3.1805546814635168e-15 8.827812596100317e-32 -3.1805546814635168e-15 -107.50150538902574 -33.05447076850747 -172.2912084624321 4.013887735855836e-06 1.1421179639551373e-06 -99.91854179907459 -5.565970692561154e-15 -6.7586786981099735e-15 -3.2828428091748057e-31 -8.690887710980773 -33.38783885475585 -8.442131343703778 9.145373799605142 29.598873493297702 -52.177504419915856 7.951386703658792e-16 -4.138037154422024e-33 -5.963540027744094e-16 6.8721225017638625 -27.342448978441396 18.544375499199994 -6.080914713782966 28.830938609709825 46.71314038425773 -1.5902773407317588e-15 -1.1034765745125397e-32 7.951386703658794e-16
